<?xml version="1.0" standalone="no"?>
<!DOCTYPE svg PUBLIC "-//W3C//DTD SVG 20010904//EN"
 "http://www.w3.org/TR/2001/REC-SVG-20010904/DTD/svg10.dtd">
<svg version="1.0" xmlns="http://www.w3.org/2000/svg"
 width="180.000000pt" height="180.000000pt" viewBox="0 0 180.000000 180.000000"
 preserveAspectRatio="xMidYMid meet">
<metadata>
Created by potrace 1.14, written by Peter Selinger 2001-2017
</metadata>
<g transform="translate(0.000000,180.000000) scale(0.100000,-0.100000)"
fill="#000000" stroke="none">
<path d="M153 1376 l-28 -24 0 -437 0 -437 28 -24 28 -24 283 0 c271 0 284 1
310 21 32 25 35 75 7 110 -19 24 -23 24 -242 29 l-224 5 0 360 c0 271 -4 368
-13 391 -24 56 -100 72 -149 30z"/>
<path d="M1145 1381 c-86 -25 -122 -46 -188 -112 -96 -97 -137 -216 -132 -389
8 -249 138 -421 346 -458 172 -32 343 20 430 129 61 77 88 188 56 230 -48 62
-144 33 -160 -50 -8 -40 -48 -92 -94 -125 -35 -24 -54 -30 -115 -33 -66 -4
-78 -2 -128 24 -63 33 -103 88 -125 174 -19 70 -13 227 10 294 37 107 127 178
228 177 96 0 163 -43 218 -138 37 -65 50 -76 95 -77 28 -1 42 5 60 27 31 35
31 77 0 141 -32 69 -88 120 -174 162 -66 32 -84 36 -170 38 -70 3 -114 -1
-157 -14z"/>
</g>
</svg>
